<svg width="42" height="42" viewBox="0 0 42 42" fill="none" xmlns="http://www.w3.org/2000/svg">
<rect width="42" height="42" rx="8" fill="#595959"/>
<g clip-path="url(#clip0_1081_512)">
<path d="M21 18C20.2044 18 19.4413 18.3161 18.8787 18.8787C18.3161 19.4413 18 20.2044 18 21C18 21.7956 18.3161 22.5587 18.8787 23.1213C19.4413 23.6839 20.2044 24 21 24C21.7956 24 22.5587 23.6839 23.1213 23.1213C23.6839 22.5587 24 21.7956 24 21C24 20.2044 23.6839 19.4413 23.1213 18.8787C22.5587 18.3161 21.7956 18 21 18ZM21 16C22.3261 16 23.5979 16.5268 24.5355 17.4645C25.4732 18.4021 26 19.6739 26 21C26 22.3261 25.4732 23.5979 24.5355 24.5355C23.5979 25.4732 22.3261 26 21 26C19.6739 26 18.4021 25.4732 17.4645 24.5355C16.5268 23.5979 16 22.3261 16 21C16 19.6739 16.5268 18.4021 17.4645 17.4645C18.4021 16.5268 19.6739 16 21 16ZM27.5 15.75C27.5 16.0815 27.3683 16.3995 27.1339 16.6339C26.8995 16.8683 26.5815 17 26.25 17C25.9185 17 25.6005 16.8683 25.3661 16.6339C25.1317 16.3995 25 16.0815 25 15.75C25 15.4185 25.1317 15.1005 25.3661 14.8661C25.6005 14.6317 25.9185 14.5 26.25 14.5C26.5815 14.5 26.8995 14.6317 27.1339 14.8661C27.3683 15.1005 27.5 15.4185 27.5 15.75ZM21 13C18.526 13 18.122 13.007 16.971 13.058C16.187 13.095 15.661 13.2 15.173 13.39C14.739 13.558 14.426 13.759 14.093 14.093C13.78 14.3954 13.5394 14.7646 13.389 15.173C13.199 15.663 13.094 16.188 13.058 16.971C13.006 18.075 13 18.461 13 21C13 23.474 13.007 23.878 13.058 25.029C13.095 25.812 13.2 26.339 13.389 26.826C13.559 27.261 13.759 27.574 14.091 27.906C14.428 28.242 14.741 28.443 15.171 28.609C15.665 28.8 16.191 28.906 16.971 28.942C18.075 28.994 18.461 29 21 29C23.474 29 23.878 28.993 25.029 28.942C25.811 28.905 26.338 28.8 26.826 28.611C27.259 28.442 27.574 28.241 27.906 27.909C28.243 27.572 28.444 27.259 28.61 26.829C28.8 26.336 28.906 25.809 28.942 25.029C28.994 23.925 29 23.539 29 21C29 18.526 28.993 18.122 28.942 16.971C28.905 16.189 28.8 15.661 28.61 15.173C28.4593 14.765 28.2191 14.396 27.907 14.093C27.6047 13.7798 27.2355 13.5392 26.827 13.389C26.337 13.199 25.811 13.094 25.029 13.058C23.925 13.006 23.539 13 21 13ZM21 11C23.717 11 24.056 11.01 25.122 11.06C26.187 11.11 26.912 11.277 27.55 11.525C28.21 11.779 28.766 12.123 29.322 12.678C29.8305 13.1779 30.224 13.7826 30.475 14.45C30.722 15.087 30.89 15.813 30.94 16.878C30.987 17.944 31 18.283 31 21C31 23.717 30.99 24.056 30.94 25.122C30.89 26.187 30.722 26.912 30.475 27.55C30.2247 28.2178 29.8311 28.8226 29.322 29.322C28.822 29.8303 28.2173 30.2238 27.55 30.475C26.913 30.722 26.187 30.89 25.122 30.94C24.056 30.987 23.717 31 21 31C18.283 31 17.944 30.99 16.878 30.94C15.813 30.89 15.088 30.722 14.45 30.475C13.7823 30.2245 13.1775 29.8309 12.678 29.322C12.1694 28.8222 11.7759 28.2175 11.525 27.55C11.277 26.913 11.11 26.187 11.06 25.122C11.013 24.056 11 23.717 11 21C11 18.283 11.01 17.944 11.06 16.878C11.11 15.812 11.277 15.088 11.525 14.45C11.7752 13.7822 12.1688 13.1773 12.678 12.678C13.1777 12.1692 13.7824 11.7757 14.45 11.525C15.088 11.277 15.812 11.11 16.878 11.06C17.944 11.013 18.283 11 21 11Z" fill="white"/>
</g>
<defs>
<clipPath id="clip0_1081_512">
<rect width="24" height="24" fill="white" transform="translate(9 9)"/>
</clipPath>
</defs>
</svg>
